<mxfile host="app.diagrams.net" modified="2021-09-26T04:12:31.337Z" agent="5.0 (Windows NT 10.0; Win64; x64) AppleWebKit/537.36 (KHTML, like Gecko) Chrome/93.0.4577.82 Safari/537.36" etag="woBkylj0xYeVvN3I9HWj" version="15.3.3" type="github">
  <diagram name="Page-1" id="c7558073-3199-34d8-9f00-42111426c3f3">
    <mxGraphModel dx="1796" dy="656" grid="1" gridSize="10" guides="1" tooltips="1" connect="1" arrows="1" fold="1" page="1" pageScale="1" pageWidth="826" pageHeight="1169" background="none" math="0" shadow="0">
      <root>
        <mxCell id="0" />
        <mxCell id="1" parent="0" />
        <mxCell id="PadTIyMqERsMDA0XlbBG-103" value="" style="group" vertex="1" connectable="0" parent="1">
          <mxGeometry x="20" y="20" width="430" height="40" as="geometry" />
        </mxCell>
        <mxCell id="PadTIyMqERsMDA0XlbBG-102" value="" style="rounded=0;whiteSpace=wrap;html=1;hachureGap=4;pointerEvents=0;strokeColor=default;" vertex="1" parent="PadTIyMqERsMDA0XlbBG-103">
          <mxGeometry width="430" height="40" as="geometry" />
        </mxCell>
        <mxCell id="PadTIyMqERsMDA0XlbBG-96" value="Abyss Space" style="whiteSpace=wrap;align=center;verticalAlign=middle;fontStyle=1;strokeWidth=3;fillColor=#FFFFCC" vertex="1" parent="PadTIyMqERsMDA0XlbBG-103">
          <mxGeometry x="10" y="9.23076923076923" width="130" height="18.46153846153846" as="geometry" />
        </mxCell>
        <mxCell id="PadTIyMqERsMDA0XlbBG-97" value="Planar Rails" style="whiteSpace=wrap;align=center;verticalAlign=middle;size=0.23076923076923078;fontStyle=1;strokeWidth=3;fillColor=#FFCCCC;strokeColor=default;" vertex="1" parent="PadTIyMqERsMDA0XlbBG-103">
          <mxGeometry x="290" y="9.23076923076923" width="130" height="18.46153846153846" as="geometry" />
        </mxCell>
        <mxCell id="PadTIyMqERsMDA0XlbBG-98" value="Real Space" style="verticalAlign=middle;align=center;fontSize=12;fontFamily=Helvetica;html=1;rounded=1;fontStyle=1;strokeWidth=3;fillColor=#E6FFCC" vertex="1" parent="PadTIyMqERsMDA0XlbBG-103">
          <mxGeometry x="150" y="9.23076923076923" width="130" height="18.46153846153846" as="geometry" />
        </mxCell>
        <mxCell id="PadTIyMqERsMDA0XlbBG-104" value="" style="whiteSpace=wrap;align=center;verticalAlign=middle;size=0.23076923076923078;fontStyle=1;strokeWidth=3;fillColor=#FFCCCC;strokeColor=default;" vertex="1" parent="1">
          <mxGeometry x="100" y="260" width="450" height="18.46" as="geometry" />
        </mxCell>
        <mxCell id="PadTIyMqERsMDA0XlbBG-115" value="" style="verticalAlign=middle;align=center;fontSize=12;fontFamily=Helvetica;html=1;rounded=1;fontStyle=1;strokeWidth=3;fillColor=#E6FFCC" vertex="1" parent="1">
          <mxGeometry x="10" y="239.23" width="60" height="60" as="geometry" />
        </mxCell>
        <mxCell id="PadTIyMqERsMDA0XlbBG-117" value="" style="whiteSpace=wrap;align=center;verticalAlign=middle;fontStyle=1;strokeWidth=3;fillColor=#FFFFCC" vertex="1" parent="1">
          <mxGeometry x="240" y="140" width="90" height="70" as="geometry" />
        </mxCell>
        <mxCell id="PadTIyMqERsMDA0XlbBG-118" value="" style="whiteSpace=wrap;align=center;verticalAlign=middle;size=0.23076923076923078;fontStyle=1;strokeWidth=3;fillColor=#FFCCCC;strokeColor=default;" vertex="1" parent="1">
          <mxGeometry x="340" y="330" width="400" height="18.46" as="geometry" />
        </mxCell>
        <mxCell id="PadTIyMqERsMDA0XlbBG-119" value="" style="whiteSpace=wrap;align=center;verticalAlign=middle;size=0.23076923076923078;fontStyle=1;strokeWidth=3;fillColor=#FFCCCC;strokeColor=default;" vertex="1" parent="1">
          <mxGeometry x="140" y="470" width="370" height="18.46" as="geometry" />
        </mxCell>
        <mxCell id="PadTIyMqERsMDA0XlbBG-120" value="" style="whiteSpace=wrap;align=center;verticalAlign=middle;size=0.23076923076923078;fontStyle=1;strokeWidth=3;fillColor=#FFCCCC;strokeColor=default;" vertex="1" parent="1">
          <mxGeometry x="430" y="400" width="160" height="18.46" as="geometry" />
        </mxCell>
        <mxCell id="PadTIyMqERsMDA0XlbBG-121" value="" style="verticalAlign=middle;align=center;fontSize=12;fontFamily=Helvetica;html=1;rounded=1;fontStyle=1;strokeWidth=3;fillColor=#E6FFCC" vertex="1" parent="1">
          <mxGeometry x="250" y="309.23" width="60" height="60" as="geometry" />
        </mxCell>
        <mxCell id="PadTIyMqERsMDA0XlbBG-122" value="" style="verticalAlign=middle;align=center;fontSize=12;fontFamily=Helvetica;html=1;rounded=1;fontStyle=1;strokeWidth=3;fillColor=#E6FFCC" vertex="1" parent="1">
          <mxGeometry x="580" y="239.23000000000002" width="60" height="60" as="geometry" />
        </mxCell>
        <mxCell id="PadTIyMqERsMDA0XlbBG-123" value="" style="verticalAlign=middle;align=center;fontSize=12;fontFamily=Helvetica;html=1;rounded=1;fontStyle=1;strokeWidth=3;fillColor=#E6FFCC" vertex="1" parent="1">
          <mxGeometry x="766" y="309.23" width="60" height="60" as="geometry" />
        </mxCell>
        <mxCell id="PadTIyMqERsMDA0XlbBG-124" value="" style="verticalAlign=middle;align=center;fontSize=12;fontFamily=Helvetica;html=1;rounded=1;fontStyle=1;strokeWidth=3;fillColor=#E6FFCC" vertex="1" parent="1">
          <mxGeometry x="620" y="379.23" width="60" height="60" as="geometry" />
        </mxCell>
        <mxCell id="PadTIyMqERsMDA0XlbBG-125" value="" style="verticalAlign=middle;align=center;fontSize=12;fontFamily=Helvetica;html=1;rounded=1;fontStyle=1;strokeWidth=3;fillColor=#E6FFCC" vertex="1" parent="1">
          <mxGeometry x="340" y="379.23" width="60" height="60" as="geometry" />
        </mxCell>
        <mxCell id="PadTIyMqERsMDA0XlbBG-126" value="" style="verticalAlign=middle;align=center;fontSize=12;fontFamily=Helvetica;html=1;rounded=1;fontStyle=1;strokeWidth=3;fillColor=#E6FFCC" vertex="1" parent="1">
          <mxGeometry x="540" y="449.23" width="60" height="60" as="geometry" />
        </mxCell>
        <mxCell id="PadTIyMqERsMDA0XlbBG-127" value="" style="verticalAlign=middle;align=center;fontSize=12;fontFamily=Helvetica;html=1;rounded=1;fontStyle=1;strokeWidth=3;fillColor=#E6FFCC" vertex="1" parent="1">
          <mxGeometry x="50" y="449.23" width="60" height="60" as="geometry" />
        </mxCell>
      </root>
    </mxGraphModel>
  </diagram>
</mxfile>
